HIERARCHY
ROOT Hips
{
 OFFSET 0.000000 0.000000 0.000000
 CHANNELS 6 Xposition Yposition Zposition Yrotation Xrotation Zrotation
 JOINT Chest
 {
  OFFSET 0.000000 10.932484 0.001155
  CHANNELS 3 Yrotation Xrotation Zrotation
  JOINT Chest2
  {
   OFFSET 0.000000 12.093805 -0.002099
   CHANNELS 3 Yrotation Xrotation Zrotation
   JOINT Chest3
   {
    OFFSET 0.000000 10.927800 0.000000
    CHANNELS 3 Yrotation Xrotation Zrotation
    JOINT Chest4
    {
     OFFSET 0.000000 10.927800 0.000000
     CHANNELS 3 Yrotation Xrotation Zrotation
     JOINT Neck
     {
      OFFSET 0.000000 15.355144 0.000000
      CHANNELS 3 Yrotation Xrotation Zrotation
      JOINT Head
      {
       OFFSET 0.000000 10.170446 -0.004991
       CHANNELS 3 Yrotation Xrotation Zrotation
       End Site
       {
        OFFSET 0.000000 19.463738 -0.002607
       }
      }
     }
     JOINT RightCollar
     {
      OFFSET -3.333126 8.566406 0.000000
      CHANNELS 3 Yrotation Xrotation Zrotation
      JOINT RightShoulder
      {
       OFFSET -15.529370 0.000000 0.000000
       CHANNELS 3 Yrotation Xrotation Zrotation
       JOINT RightElbow
       {
        OFFSET 0.000000 -33.145213 0.000000
        CHANNELS 3 Yrotation Xrotation Zrotation
        JOINT RightWrist
        {
         OFFSET 0.000000 -27.120720 -0.000000
         CHANNELS 3 Yrotation Xrotation Zrotation
         End Site
         {
          OFFSET 0.000000 -20.306483 0.000000
         }
        }
       }
      }
     }
     JOINT LeftCollar
     {
      OFFSET 3.333126 8.566406 0.000000
      CHANNELS 3 Yrotation Xrotation Zrotation
      JOINT LeftShoulder
      {
       OFFSET 15.529370 0.000000 0.000000
       CHANNELS 3 Yrotation Xrotation Zrotation
       JOINT LeftElbow
       {
        OFFSET 0.000000 -33.145213 0.000000
        CHANNELS 3 Yrotation Xrotation Zrotation
        JOINT LeftWrist
        {
         OFFSET 0.000000 -27.120720 -0.000000
         CHANNELS 3 Yrotation Xrotation Zrotation
         End Site
         {
          OFFSET 0.000000 -20.306483 0.000000
         }
        }
       }
      }
     }
    }
   }
  }
 }
 JOINT RightHip
 {
  OFFSET -8.869179 -0.005661 -0.000578
  CHANNELS 3 Yrotation Xrotation Zrotation
  JOINT RightKnee
  {
   OFFSET 0.000000 -45.835245 0.000547
   CHANNELS 3 Yrotation Xrotation Zrotation
   JOINT RightAnkle
   {
    OFFSET 0.000000 -44.890236 0.000924
    CHANNELS 3 Yrotation Xrotation Zrotation
    JOINT RightToe
    {
     OFFSET 0.000000 -8.082775 18.351045
     CHANNELS 3 Yrotation Xrotation Zrotation
     End Site
     {
      OFFSET 0.000000 -1.681997 7.345339
     }
    }
   }
  }
 }
 JOINT LeftHip
 {
  OFFSET 8.869179 -0.005661 -0.000578
  CHANNELS 3 Yrotation Xrotation Zrotation
  JOINT LeftKnee
  {
   OFFSET 0.000000 -45.835245 0.000547
   CHANNELS 3 Yrotation Xrotation Zrotation
   JOINT LeftAnkle
   {
    OFFSET 0.000000 -44.890236 0.000924
    CHANNELS 3 Yrotation Xrotation Zrotation
    JOINT LeftToe
    {
     OFFSET 0.000000 -8.082775 18.351045
     CHANNELS 3 Yrotation Xrotation Zrotation
     End Site
     {
      OFFSET 0.000000 -1.681997 7.345339
     }
    }
   }
  }
 }
}
MOTION
Frames: 5
Frame Time: 0.008333
290.052183 53.215869 183.884849 -30.002598 -31.753272 -1.885464 0.518020 17.367716 -0.401042 0.244005 7.729733 -0.459137 0.244005 7.729733 -0.459137 0.188564 5.797122 -0.346931 -4.238098 13.498513 -0.471880 -7.827502 -11.029471 0.812364 -4.645389 0.601826 5.405676 21.978322 -1.118548 -34.963538 28.496572 -63.752342 10.140011 44.667795 -23.571670 -60.628800 1.627328 -0.712784 -4.657790 -27.804133 -2.708096 48.462768 -6.379759 -56.017606 -29.492097 -48.783975 -50.292509 59.057707 -26.260624 -55.053061 15.460375 -157.167803 74.196911 -164.154886 2.645095 -15.769449 -5.435781 -0.091367 0.827238 -0.041620 20.222562 -57.961603 -5.776349 174.539543 67.783847 178.671878 5.521411 -22.669159 6.540322 -0.026502 -0.232242 -0.013220
290.046703 53.215789 183.879646 -30.007331 -31.750501 -1.891641 0.523668 17.371733 -0.394534 0.244831 7.731498 -0.459831 0.244831 7.731498 -0.459831 0.189193 5.798445 -0.347462 -4.242024 13.501121 -0.471246 -7.835056 -11.024405 0.814968 -4.641591 0.601355 5.419255 21.971378 -1.119443 -34.967158 28.499482 -63.753757 10.128635 44.671809 -23.568692 -60.631980 1.622098 -0.711107 -4.659630 -27.796047 -2.717012 48.479256 -6.384746 -56.027481 -29.511769 -48.772697 -50.283328 59.062867 -26.270759 -55.048914 15.482135 -157.130246 74.198681 -164.117551 2.696692 -15.766013 -5.454844 -0.082439 0.829361 -0.036518 20.212555 -57.968909 -5.753704 174.543748 67.784318 178.676475 5.527211 -22.670634 6.538734 -0.026688 -0.230857 -0.014729
290.044844 53.215071 183.877315 -30.008334 -31.748346 -1.889444 0.523127 17.374413 -0.397819 0.245358 7.732615 -0.460384 0.245358 7.732615 -0.460384 0.189595 5.799282 -0.347883 -4.245624 13.507157 -0.470840 -7.841738 -11.013010 0.816791 -4.641330 0.603681 5.422986 21.962746 -1.127177 -34.962515 28.492861 -63.757287 10.132451 44.687350 -23.562058 -60.633501 1.619902 -0.710003 -4.659683 -27.793731 -2.719776 48.495063 -6.353303 -56.010736 -29.580373 -48.827597 -50.271593 59.112560 -26.266444 -55.050806 15.480670 -157.127324 74.199631 -164.109094 2.672807 -15.772901 -5.447542 -0.090503 0.832595 -0.040800 20.215764 -57.971169 -5.755445 174.561017 67.784818 178.691341 5.545103 -22.670703 6.534399 -0.026162 -0.231700 -0.013975
290.040868 53.212785 183.869414 -30.028535 -31.727105 -1.897714 0.541622 17.356865 -0.380083 0.244485 7.733487 -0.461440 0.244485 7.733487 -0.461440 0.188955 5.799936 -0.348663 -4.243695 13.513282 -0.472018 -7.837325 -11.001816 0.813408 -4.630535 0.608960 5.424724 21.943745 -1.134472 -34.957335 28.500865 -63.762111 10.128892 44.709892 -23.561680 -60.631517 1.628910 -0.706737 -4.664257 -27.805894 -2.718116 48.511616 -6.338936 -56.020964 -29.603207 -48.811547 -50.260929 59.110983 -26.282054 -55.061326 15.523610 -157.124057 74.201047 -164.104404 2.708330 -15.790500 -5.446699 -0.116043 0.851939 -0.049803 20.215192 -58.001111 -5.729514 174.549240 67.781759 178.673344 5.609104 -22.682228 6.512687 -0.026991 -0.230072 -0.013499
290.040170 53.213431 183.866564 -30.034882 -31.725587 -1.897160 0.542571 17.356952 -0.378261 0.243612 7.734407 -0.462718 0.243612 7.734407 -0.462718 0.188318 5.800626 -0.349609 -4.246657 13.518786 -0.471848 -7.842731 -10.991454 0.814564 -4.624776 0.612635 5.419698 21.929790 -1.143163 -34.940584 28.526414 -63.762021 10.099638 44.719634 -23.568089 -60.629122 1.628836 -0.702045 -4.665404 -27.799378 -2.718512 48.526687 -6.303889 -56.002520 -29.668577 -48.870305 -50.254778 59.167310 -26.277306 -55.061113 15.526187 -157.132363 74.206529 -164.108882 2.705177 -15.790752 -5.444338 -0.117563 0.854585 -0.052991 20.210715 -58.004930 -5.713872 174.565681 67.783753 178.688713 5.557041 -22.677282 6.532925 -0.027470 -0.228611 -0.013746
